<svg width="20" height="17" viewBox="0 0 20 17" fill="none" xmlns="http://www.w3.org/2000/svg">
<path d="M15.8702 6.16211C13.0705 7.76781 13.5473 12.4548 16.5842 12.4548C17.894 12.4548 19.0276 11.4701 19.5323 10.2113C20.6979 7.30396 18.274 4.78303 15.8702 6.16211Z" fill="#FF7236"/>
<path d="M12.9944 6.74252C16.3536 6.74252 17.3595 1.03816 14.168 0.10034C12.714 -0.326798 11.0606 0.698098 10.5296 2.57162C9.93371 4.67154 11.1059 6.74252 12.9944 6.74252Z" fill="#FF7236"/>
<path d="M12.1301 16.8964C11.6636 16.7674 10.8356 16.6844 9.96895 16.6724C9.05286 16.6589 8.09374 16.7246 7.47317 16.8964C5.79711 17.3633 3.5165 16.2337 4.01689 13.8876C4.47974 11.7187 6.14276 11.8423 6.53602 9.78683C6.93226 7.7095 8.47212 6.70696 9.96895 6.78533C11.3543 6.85805 12.7026 7.85706 13.07 9.7873C13.4609 11.8442 15.1205 11.7194 15.5827 13.8876C16.0849 16.2356 13.7995 17.3591 12.1301 16.8964Z" fill="#FF7236"/>
<path d="M7.08195 6.74269C8.03215 6.74269 8.8482 6.19082 9.30166 5.34619C10.6497 2.83466 8.43571 -0.642223 5.90812 0.102387C2.71121 1.0428 3.72458 6.74269 7.08195 6.74269Z" fill="#FF7236"/>
<path d="M5.56365 10.5872C6.64227 7.94816 4.0856 4.72449 1.64384 5.7388C-1.2974 6.96044 -0.000181012 12.2294 3.23383 12.2294C4.2717 12.2294 5.15368 11.5905 5.56365 10.5872Z" fill="#FF7236"/>
<path d="M12.1301 16.8964C11.6636 16.7674 10.8357 16.6843 9.96902 16.6723V6.78528C11.3544 6.858 12.7026 7.85701 13.07 9.78725C13.461 11.8441 15.1206 11.7194 15.5827 13.8876C16.085 16.2355 13.7996 17.359 12.1301 16.8964Z" fill="#FF7236"/>
</svg>
